STARTFONT 2.1
FONT -Monotype-Courier-Bold-I-Normal--14-140-75-75-M-77-iso8859-2
SIZE 14 75 75
FONTBOUNDINGBOX 13 16 -1 -4

STARTPROPERTIES 24
FOUNDRY "Monotype"
FAMILY_NAME "Courier"
WEIGHT_NAME "Bold"
SLANT "I"
SETWIDTH_NAME "Normal"
ADD_STYLE_NAME ""
PIXEL_SIZE 14
POINT_SIZE 140
RESOLUTION_X 75
RESOLUTION_Y 75
SPACING "M"
AVERAGE_WIDTH 77
CHARSET_REGISTRY "iso8859"
CHARSET_ENCODING "2"
FACE_NAME "Courier Bold Italic ISO Latin2"
_DEC_DEVICE_FONTNAMES "PS=courier-bit-lat2"
COPYRIGHT "Copyright (c) 1994 Monotype Typography Ltd."
CAP_HEIGHT 9
X_HEIGHT 7
WEIGHT 10
QUAD_WIDTH 9
DEFAULT_CHAR 160
FONT_DESCENT 4
FONT_ASCENT 12
ENDPROPERTIES

CHARS 191

STARTCHAR space
ENCODING 32
SWIDTH 600 0
DWIDTH 9 0
BBX 0 0 0 0
BITMAP
ENDCHAR

STARTCHAR exclam
ENCODING 33
SWIDTH 600 0
DWIDTH 9 0
BBX 4 10 3 0
BITMAP
20
70
70
70
60
60
40
00
C0
C0
ENDCHAR

STARTCHAR quotedbl
ENCODING 34
SWIDTH 600 0
DWIDTH 9 0
BBX 6 4 2 6
BITMAP
6C
6C
D8
90
ENDCHAR

STARTCHAR numbersign
ENCODING 35
SWIDTH 600 0
DWIDTH 9 0
BBX 9 12 0 -2
BITMAP
1B00
1B00
1B00
1B00
7F80
3600
3600
FF00
6C00
6C00
6C00
6C00
ENDCHAR

STARTCHAR dollar
ENCODING 36
SWIDTH 600 0
DWIDTH 9 0
BBX 8 12 1 -1
BITMAP
0C
0D
3F
73
60
38
1C
C6
EE
BC
30
30
ENDCHAR

STARTCHAR percent
ENCODING 37
SWIDTH 600 0
DWIDTH 9 0
BBX 7 10 1 0
BITMAP
60
D0
B0
6E
38
E0
18
34
2C
18
ENDCHAR

STARTCHAR ampersand
ENCODING 38
SWIDTH 600 0
DWIDTH 9 0
BBX 8 9 1 0
BITMAP
0D
1F
32
18
3A
6F
CC
FF
73
ENDCHAR

STARTCHAR quoteright
ENCODING 39
SWIDTH 600 0
DWIDTH 9 0
BBX 4 4 3 6
BITMAP
30
60
40
80
ENDCHAR

STARTCHAR parenleft
ENCODING 40
SWIDTH 600 0
DWIDTH 9 0
BBX 5 13 3 -3
BITMAP
18
30
30
60
60
C0
C0
C0
C0
C0
C0
60
60
ENDCHAR

STARTCHAR parenright
ENCODING 41
SWIDTH 600 0
DWIDTH 9 0
BBX 5 13 2 -3
BITMAP
30
30
18
18
18
18
18
18
30
30
60
60
C0
ENDCHAR

STARTCHAR asterisk
ENCODING 42
SWIDTH 600 0
DWIDTH 9 0
BBX 6 6 3 4
BITMAP
10
10
FC
70
D8
88
ENDCHAR

STARTCHAR plus
ENCODING 43
SWIDTH 600 0
DWIDTH 9 0
BBX 7 8 1 1
BITMAP
18
18
18
FE
FE
30
30
30
ENDCHAR

STARTCHAR comma
ENCODING 44
SWIDTH 600 0
DWIDTH 9 0
BBX 3 4 3 -2
BITMAP
60
40
C0
80
ENDCHAR

STARTCHAR minus
ENCODING 45
SWIDTH 600 0
DWIDTH 9 0
BBX 7 2 2 3
BITMAP
FE
FE
ENDCHAR

STARTCHAR period
ENCODING 46
SWIDTH 600 0
DWIDTH 9 0
BBX 2 2 3 0
BITMAP
C0
C0
ENDCHAR

STARTCHAR slash
ENCODING 47
SWIDTH 600 0
DWIDTH 9 0
BBX 9 13 1 -2
BITMAP
0080
0180
0300
0200
0600
0C00
0800
1800
3000
2000
6000
C000
8000
ENDCHAR

STARTCHAR zero
ENCODING 48
SWIDTH 600 0
DWIDTH 9 0
BBX 7 10 1 0
BITMAP
1C
26
66
66
C6
C6
CC
CC
C8
70
ENDCHAR

STARTCHAR one
ENCODING 49
SWIDTH 600 0
DWIDTH 9 0
BBX 6 10 1 0
BITMAP
0C
3C
0C
0C
18
18
18
30
30
FC
ENDCHAR

STARTCHAR two
ENCODING 50
SWIDTH 600 0
DWIDTH 9 0
BBX 8 10 1 0
BITMAP
1E
33
63
03
06
1C
30
60
C0
FE
ENDCHAR

STARTCHAR three
ENCODING 51
SWIDTH 600 0
DWIDTH 9 0
BBX 8 10 0 0
BITMAP
1E
33
03
06
1C
06
06
06
CC
78
ENDCHAR

STARTCHAR four
ENCODING 52
SWIDTH 600 0
DWIDTH 9 0
BBX 7 10 1 0
BITMAP
06
0E
1E
36
6C
CC
CC
FE
18
3C
ENDCHAR

STARTCHAR five
ENCODING 53
SWIDTH 600 0
DWIDTH 9 0
BBX 9 10 0 0
BITMAP
3F80
3000
3000
3E00
7300
6300
0300
0300
C600
7C00
ENDCHAR

STARTCHAR six
ENCODING 54
SWIDTH 600 0
DWIDTH 9 0
BBX 8 10 1 0
BITMAP
0F
38
60
60
DC
E6
C6
C6
CC
78
ENDCHAR

STARTCHAR seven
ENCODING 55
SWIDTH 600 0
DWIDTH 9 0
BBX 7 10 2 0
BITMAP
FE
C6
0C
18
18
30
60
60
C0
C0
ENDCHAR

STARTCHAR eight
ENCODING 56
SWIDTH 600 0
DWIDTH 9 0
BBX 8 10 1 0
BITMAP
1E
33
63
73
3C
6E
C6
C6
CC
78
ENDCHAR

STARTCHAR nine
ENCODING 57
SWIDTH 600 0
DWIDTH 9 0
BBX 8 10 0 0
BITMAP
1E
33
63
63
67
3B
06
06
1C
F0
ENDCHAR

STARTCHAR colon
ENCODING 58
SWIDTH 600 0
DWIDTH 9 0
BBX 3 7 3 0
BITMAP
60
60
00
00
00
C0
C0
ENDCHAR

STARTCHAR semicolon
ENCODING 59
SWIDTH 600 0
DWIDTH 9 0
BBX 4 9 2 -2
BITMAP
30
30
00
00
00
60
40
C0
80
ENDCHAR

STARTCHAR less
ENCODING 60
SWIDTH 600 0
DWIDTH 9 0
BBX 9 8 0 0
BITMAP
0380
0E00
3800
E000
7000
1C00
0E00
0300
ENDCHAR

STARTCHAR equal
ENCODING 61
SWIDTH 600 0
DWIDTH 9 0
BBX 9 5 1 2
BITMAP
7F80
7F80
0000
FF00
FF00
ENDCHAR

STARTCHAR greater
ENCODING 62
SWIDTH 600 0
DWIDTH 9 0
BBX 9 8 0 0
BITMAP
C000
7000
1C00
0700
0380
0E00
3800
E000
ENDCHAR

STARTCHAR question
ENCODING 63
SWIDTH 600 0
DWIDTH 9 0
BBX 7 10 1 0
BITMAP
7C
E6
C6
06
0E
3C
30
00
60
60
ENDCHAR

STARTCHAR at
ENCODING 64
SWIDTH 600 0
DWIDTH 9 0
BBX 8 11 1 -1
BITMAP
1E
33
61
4F
DB
B6
B6
9F
C0
6C
38
ENDCHAR

STARTCHAR A
ENCODING 65
SWIDTH 600 0
DWIDTH 9 0
BBX 9 9 0 0
BITMAP
3C00
0E00
0E00
1B00
1300
3F00
3300
6300
F780
ENDCHAR

STARTCHAR B
ENCODING 66
SWIDTH 600 0
DWIDTH 9 0
BBX 9 9 0 0
BITMAP
7F00
1980
1980
3300
3F00
3180
6180
6380
FF00
ENDCHAR

STARTCHAR C
ENCODING 67
SWIDTH 600 0
DWIDTH 9 0
BBX 9 9 1 0
BITMAP
1E80
3380
6180
6000
C000
C000
C300
EE00
7C00
ENDCHAR

STARTCHAR D
ENCODING 68
SWIDTH 600 0
DWIDTH 9 0
BBX 9 9 0 0
BITMAP
3E00
1B00
1980
3180
3180
3300
6300
6600
FC00
ENDCHAR

STARTCHAR E
ENCODING 69
SWIDTH 600 0
DWIDTH 9 0
BBX 9 9 0 0
BITMAP
3F80
1980
1980
3200
3E00
3400
6300
6300
FF00
ENDCHAR

STARTCHAR F
ENCODING 70
SWIDTH 600 0
DWIDTH 9 0
BBX 9 9 0 0
BITMAP
3F80
1980
1980
3200
3E00
3400
6000
6000
F800
ENDCHAR

STARTCHAR G
ENCODING 71
SWIDTH 600 0
DWIDTH 9 0
BBX 9 9 1 0
BITMAP
1E80
3380
6180
6000
CF80
C300
C300
E600
7C00
ENDCHAR

STARTCHAR H
ENCODING 72
SWIDTH 600 0
DWIDTH 9 0
BBX 11 9 0 0
BITMAP
3DE0
18C0
18C0
3180
3F80
3180
6300
6300
F780
ENDCHAR

STARTCHAR I
ENCODING 73
SWIDTH 600 0
DWIDTH 9 0
BBX 8 9 1 0
BITMAP
3F
0C
0C
18
18
18
30
30
FC
ENDCHAR

STARTCHAR J
ENCODING 74
SWIDTH 600 0
DWIDTH 9 0
BBX 10 9 1 0
BITMAP
0FC0
0300
0300
0600
0600
0600
CC00
CC00
7800
ENDCHAR

STARTCHAR K
ENCODING 75
SWIDTH 600 0
DWIDTH 9 0
BBX 10 9 0 0
BITMAP
3DC0
1980
1B00
3600
3C00
3600
6600
6300
F380
ENDCHAR

STARTCHAR L
ENCODING 76
SWIDTH 600 0
DWIDTH 9 0
BBX 8 9 0 0
BITMAP
1F
0C
0C
18
18
18
33
33
FF
ENDCHAR

STARTCHAR M
ENCODING 77
SWIDTH 600 0
DWIDTH 9 0
BBX 11 9 0 0
BITMAP
38E0
18C0
19C0
3F80
3580
3580
6300
6300
F780
ENDCHAR

STARTCHAR N
ENCODING 78
SWIDTH 600 0
DWIDTH 9 0
BBX 11 9 0 0
BITMAP
38E0
1840
1CC0
3C80
2E80
2780
6700
4300
E300
ENDCHAR

STARTCHAR O
ENCODING 79
SWIDTH 600 0
DWIDTH 9 0
BBX 9 9 1 0
BITMAP
1F00
3380
6180
6180
C180
C300
C300
E600
7C00
ENDCHAR

STARTCHAR P
ENCODING 80
SWIDTH 600 0
DWIDTH 9 0
BBX 10 9 0 0
BITMAP
3F80
18C0
18C0
3180
3F00
3000
6000
6000
F800
ENDCHAR

STARTCHAR Q
ENCODING 81
SWIDTH 600 0
DWIDTH 9 0
BBX 9 12 1 -3
BITMAP
1F00
3380
6180
6180
C180
C300
C300
E600
7C00
3100
7B00
4E00
ENDCHAR

STARTCHAR R
ENCODING 82
SWIDTH 600 0
DWIDTH 9 0
BBX 10 9 0 0
BITMAP
3F80
18C0
18C0
3180
3F00
3600
6300
6300
F180
ENDCHAR

STARTCHAR S
ENCODING 83
SWIDTH 600 0
DWIDTH 9 0
BBX 9 9 1 0
BITMAP
1E80
3380
6180
7000
3E00
0700
C300
E600
BC00
ENDCHAR

STARTCHAR T
ENCODING 84
SWIDTH 600 0
DWIDTH 9 0
BBX 10 9 1 0
BITMAP
FFC0
CCC0
CCC0
1800
1800
1800
3000
3000
FC00
ENDCHAR

STARTCHAR U
ENCODING 85
SWIDTH 600 0
DWIDTH 9 0
BBX 10 9 1 0
BITMAP
7BC0
3180
3180
6300
6300
6300
C600
C600
7C00
ENDCHAR

STARTCHAR V
ENCODING 86
SWIDTH 600 0
DWIDTH 9 0
BBX 10 9 1 0
BITMAP
F3C0
6180
6300
6300
3600
3600
3C00
3800
3800
ENDCHAR

STARTCHAR W
ENCODING 87
SWIDTH 600 0
DWIDTH 9 0
BBX 11 9 0 0
BITMAP
F1E0
60C0
6CC0
6D80
7D80
7580
7700
6700
6600
ENDCHAR

STARTCHAR X
ENCODING 88
SWIDTH 600 0
DWIDTH 9 0
BBX 11 9 0 0
BITMAP
79E0
30C0
1980
0F00
0E00
1E00
3300
6180
F3C0
ENDCHAR

STARTCHAR Y
ENCODING 89
SWIDTH 600 0
DWIDTH 9 0
BBX 10 9 1 0
BITMAP
F3C0
6180
3300
1E00
0C00
0C00
1800
1800
7E00
ENDCHAR

STARTCHAR Z
ENCODING 90
SWIDTH 600 0
DWIDTH 9 0
BBX 9 9 1 0
BITMAP
3F80
3180
3300
0600
0C00
1800
3300
6300
FF00
ENDCHAR

STARTCHAR bracketleft
ENCODING 91
SWIDTH 600 0
DWIDTH 9 0
BBX 6 13 2 -3
BITMAP
3C
30
30
30
60
60
60
60
60
C0
C0
C0
F0
ENDCHAR

STARTCHAR backslash
ENCODING 92
SWIDTH 600 0
DWIDTH 9 0
BBX 5 13 2 -3
BITMAP
C0
C0
40
40
60
60
20
30
30
10
10
18
18
ENDCHAR

STARTCHAR bracketright
ENCODING 93
SWIDTH 600 0
DWIDTH 9 0
BBX 6 13 2 -3
BITMAP
3C
0C
0C
0C
18
18
18
18
18
30
30
30
F0
ENDCHAR

STARTCHAR asciicircum
ENCODING 94
SWIDTH 600 0
DWIDTH 9 0
BBX 7 5 1 5
BITMAP
18
3C
6C
C6
C6
ENDCHAR

STARTCHAR underscore
ENCODING 95
SWIDTH 600 0
DWIDTH 9 0
BBX 9 1 0 -2
BITMAP
FF80
ENDCHAR

STARTCHAR quoteleft
ENCODING 96
SWIDTH 600 0
DWIDTH 9 0
BBX 3 4 4 6
BITMAP
C0
40
60
20
ENDCHAR

STARTCHAR a
ENCODING 97
SWIDTH 600 0
DWIDTH 9 0
BBX 8 7 1 0
BITMAP
3E
03
03
7F
C6
CE
7B
ENDCHAR

STARTCHAR b
ENCODING 98
SWIDTH 600 0
DWIDTH 9 0
BBX 9 10 0 0
BITMAP
3800
1800
1800
3700
3980
3180
6180
6300
7300
EE00
ENDCHAR

STARTCHAR c
ENCODING 99
SWIDTH 600 0
DWIDTH 9 0
BBX 8 7 1 0
BITMAP
1D
67
63
C0
C0
C6
7C
ENDCHAR

STARTCHAR d
ENCODING 100
SWIDTH 600 0
DWIDTH 9 0
BBX 9 10 1 0
BITMAP
0380
0180
0180
3B00
6700
6300
C600
C600
CE00
7700
ENDCHAR

STARTCHAR e
ENCODING 101
SWIDTH 600 0
DWIDTH 9 0
BBX 8 7 1 0
BITMAP
1E
63
63
FF
C0
C6
7C
ENDCHAR

STARTCHAR f
ENCODING 102
SWIDTH 600 0
DWIDTH 9 0
BBX 9 10 1 0
BITMAP
0780
0C00
0C00
3F00
1800
1800
1800
3000
3000
FE00
ENDCHAR

STARTCHAR g
ENCODING 103
SWIDTH 600 0
DWIDTH 9 0
BBX 9 10 1 -3
BITMAP
3B80
6700
6300
C300
C600
CE00
7600
0C00
0C00
F800
ENDCHAR

STARTCHAR h
ENCODING 104
SWIDTH 600 0
DWIDTH 9 0
BBX 9 10 0 0
BITMAP
3800
1800
1800
3700
3980
3180
6180
6300
6300
F780
ENDCHAR

STARTCHAR i
ENCODING 105
SWIDTH 600 0
DWIDTH 9 0
BBX 6 10 2 0
BITMAP
18
18
00
78
18
18
30
30
30
FC
ENDCHAR

STARTCHAR j
ENCODING 106
SWIDTH 600 0
DWIDTH 9 0
BBX 8 13 0 -3
BITMAP
03
03
00
3F
03
03
06
06
06
0C
0C
18
F0
ENDCHAR

STARTCHAR k
ENCODING 107
SWIDTH 600 0
DWIDTH 9 0
BBX 9 10 0 0
BITMAP
3800
1800
1800
3380
3300
3E00
3400
6600
6300
E300
ENDCHAR

STARTCHAR l
ENCODING 108
SWIDTH 600 0
DWIDTH 9 0
BBX 6 10 2 0
BITMAP
3C
0C
0C
18
18
18
30
30
30
FC
ENDCHAR

STARTCHAR m
ENCODING 109
SWIDTH 600 0
DWIDTH 9 0
BBX 10 7 0 0
BITMAP
7680
3FC0
36C0
2480
6D80
6D80
EDC0
ENDCHAR

STARTCHAR n
ENCODING 110
SWIDTH 600 0
DWIDTH 9 0
BBX 9 7 0 0
BITMAP
7700
3D80
3180
3180
6300
6300
F780
ENDCHAR

STARTCHAR o
ENCODING 111
SWIDTH 600 0
DWIDTH 9 0
BBX 8 7 1 0
BITMAP
1E
63
63
C3
C6
C6
78
ENDCHAR

STARTCHAR p
ENCODING 112
SWIDTH 600 0
DWIDTH 9 0
BBX 10 10 -1 -3
BITMAP
3B80
1CC0
18C0
18C0
3180
3980
3700
6000
6000
F000
ENDCHAR

STARTCHAR q
ENCODING 113
SWIDTH 600 0
DWIDTH 9 0
BBX 9 10 1 -3
BITMAP
3B80
6700
6300
C300
C600
CE00
7600
0C00
0C00
1E00
ENDCHAR

STARTCHAR r
ENCODING 114
SWIDTH 600 0
DWIDTH 9 0
BBX 9 7 0 0
BITMAP
3B80
1C00
1800
1800
3000
3000
FC00
ENDCHAR

STARTCHAR s
ENCODING 115
SWIDTH 600 0
DWIDTH 9 0
BBX 8 7 1 0
BITMAP
3D
67
71
3C
8E
E6
BC
ENDCHAR

STARTCHAR t
ENCODING 116
SWIDTH 600 0
DWIDTH 9 0
BBX 6 9 2 0
BITMAP
30
30
FC
60
60
C0
C0
CC
78
ENDCHAR

STARTCHAR u
ENCODING 117
SWIDTH 600 0
DWIDTH 9 0
BBX 8 7 1 0
BITMAP
E7
63
63
C6
C6
CE
77
ENDCHAR

STARTCHAR v
ENCODING 118
SWIDTH 600 0
DWIDTH 9 0
BBX 9 7 1 0
BITMAP
F780
6300
6600
6C00
3800
3000
2000
ENDCHAR

STARTCHAR w
ENCODING 119
SWIDTH 600 0
DWIDTH 9 0
BBX 10 7 0 0
BITMAP
F3C0
6180
6900
6B00
7F00
7600
6600
ENDCHAR

STARTCHAR x
ENCODING 120
SWIDTH 600 0
DWIDTH 9 0
BBX 9 7 0 0
BITMAP
7380
3300
1E00
1C00
3C00
6600
E700
ENDCHAR

STARTCHAR y
ENCODING 121
SWIDTH 600 0
DWIDTH 9 0
BBX 10 10 0 -3
BITMAP
7BC0
3180
3180
3300
3600
1C00
1800
3000
3000
F800
ENDCHAR

STARTCHAR z
ENCODING 122
SWIDTH 600 0
DWIDTH 9 0
BBX 8 7 1 0
BITMAP
7F
63
0E
3C
70
C6
FE
ENDCHAR

STARTCHAR braceleft
ENCODING 123
SWIDTH 600 0
DWIDTH 9 0
BBX 5 13 3 -3
BITMAP
18
30
30
30
30
60
C0
60
C0
C0
C0
C0
60
ENDCHAR

STARTCHAR bar
ENCODING 124
SWIDTH 600 0
DWIDTH 9 0
BBX 2 13 4 -3
BITMAP
C0
C0
C0
C0
C0
C0
C0
C0
C0
C0
C0
C0
C0
ENDCHAR

STARTCHAR braceright
ENCODING 125
SWIDTH 600 0
DWIDTH 9 0
BBX 5 13 2 -3
BITMAP
30
18
18
18
18
30
18
30
60
60
60
60
C0
ENDCHAR

STARTCHAR asciitilde
ENCODING 126
SWIDTH 600 0
DWIDTH 9 0
BBX 8 4 1 2
BITMAP
31
7B
DE
8C
ENDCHAR

STARTCHAR space
ENCODING 160
SWIDTH 600 0
DWIDTH 10 0
BBX 0 0 0 0
BITMAP
ENDCHAR

STARTCHAR Aogonek
ENCODING 161
SWIDTH 600 0
DWIDTH 9 0
BBX 9 11 0 -2
BITMAP
3C00
0E00
0E00
1B00
1300
3F00
3300
6300
F780
0300
0380
ENDCHAR

STARTCHAR breve
ENCODING 162
SWIDTH 600 0
DWIDTH 9 0
BBX 6 2 2 8
BITMAP
CC
78
ENDCHAR

STARTCHAR Lslash
ENCODING 163
SWIDTH 600 0
DWIDTH 9 0
BBX 8 9 0 0
BITMAP
1F
0C
0D
1E
38
58
33
33
FF
ENDCHAR

STARTCHAR currency
ENCODING 164
SWIDTH 600 0
DWIDTH 9 0
BBX 5 5 2 1
BITMAP
A8
50
88
50
A8
ENDCHAR

STARTCHAR Lcaron
ENCODING 165
SWIDTH 600 0
DWIDTH 9 0
BBX 10 9 0 0
BITMAP
1F40
0C40
0C80
1800
1800
1800
3300
3300
FF00
ENDCHAR

STARTCHAR Sacute
ENCODING 166
SWIDTH 600 0
DWIDTH 9 0
BBX 9 12 1 0
BITMAP
0600
0C00
0000
1E80
3380
6180
7000
3E00
0700
C300
E600
BC00
ENDCHAR

STARTCHAR section
ENCODING 167
SWIDTH 600 0
DWIDTH 9 0
BBX 8 11 0 -1
BITMAP
1F
31
60
78
4C
66
32
0E
06
8C
F8
ENDCHAR

STARTCHAR dieresis
ENCODING 168
SWIDTH 600 0
DWIDTH 9 0
BBX 6 2 2 8
BITMAP
CC
CC
ENDCHAR

STARTCHAR Scaron
ENCODING 169
SWIDTH 600 0
DWIDTH 9 0
BBX 9 12 1 0
BITMAP
1B00
0E00
0000
1E80
3380
6180
7000
3E00
0700
C300
E600
BC00
ENDCHAR

STARTCHAR Scommaaccent
ENCODING 170
SWIDTH 600 0
DWIDTH 9 0
BBX 9 13 1 -4
BITMAP
1E80
3380
6180
7000
3E00
0700
C300
E600
BC00
0000
1800
1800
3000
ENDCHAR

STARTCHAR Tcaron
ENCODING 171
SWIDTH 600 0
DWIDTH 9 0
BBX 10 12 1 0
BITMAP
1B00
0E00
0000
FFC0
CCC0
CCC0
1800
1800
1800
3000
3000
FC00
ENDCHAR

STARTCHAR Zacute
ENCODING 172
SWIDTH 600 0
DWIDTH 9 0
BBX 9 12 1 0
BITMAP
0600
0C00
0000
3F80
3180
3300
0600
0C00
1800
3300
6300
FF00
ENDCHAR

STARTCHAR hyphen
ENCODING 173
SWIDTH 600 0
DWIDTH 9 0
BBX 6 1 2 3
BITMAP
FC
ENDCHAR

STARTCHAR Zcaron
ENCODING 174
SWIDTH 600 0
DWIDTH 9 0
BBX 9 12 1 0
BITMAP
1B00
0E00
0000
3F80
3180
3300
0600
0C00
1800
3300
6300
FF00
ENDCHAR

STARTCHAR Zdotaccent
ENCODING 175
SWIDTH 600 0
DWIDTH 9 0
BBX 9 12 1 0
BITMAP
0600
0600
0000
3F80
3180
3300
0600
0C00
1800
3300
6300
FF00
ENDCHAR

STARTCHAR degree
ENCODING 176
SWIDTH 600 0
DWIDTH 9 0
BBX 4 4 3 6
BITMAP
70
90
90
E0
ENDCHAR

STARTCHAR aogonek
ENCODING 177
SWIDTH 600 0
DWIDTH 9 0
BBX 9 9 1 -2
BITMAP
3E00
0300
0300
7F00
C600
CE00
7B00
0300
0380
ENDCHAR

STARTCHAR ogonek
ENCODING 178
SWIDTH 600 0
DWIDTH 9 0
BBX 3 2 3 -2
BITMAP
C0
E0
ENDCHAR

STARTCHAR lslash
ENCODING 179
SWIDTH 600 0
DWIDTH 9 0
BBX 8 10 2 0
BITMAP
3C
0D
0E
18
38
58
30
30
30
FC
ENDCHAR

STARTCHAR acute
ENCODING 180
SWIDTH 600 0
DWIDTH 9 0
BBX 3 2 4 8
BITMAP
60
C0
ENDCHAR

STARTCHAR lcaron
ENCODING 181
SWIDTH 600 0
DWIDTH 9 0
BBX 8 10 2 0
BITMAP
3D
0D
0E
18
18
18
30
30
30
FC
ENDCHAR

STARTCHAR sacute
ENCODING 182
SWIDTH 600 0
DWIDTH 9 0
BBX 8 10 1 0
BITMAP
0C
18
00
3D
67
71
3C
8E
E6
BC
ENDCHAR

STARTCHAR caron
ENCODING 183
SWIDTH 600 0
DWIDTH 9 0
BBX 5 2 3 8
BITMAP
D8
70
ENDCHAR

STARTCHAR commaaccent
ENCODING 184
SWIDTH 600 0
DWIDTH 9 0
BBX 3 3 3 -4
BITMAP
60
60
C0
ENDCHAR

STARTCHAR scaron
ENCODING 185
SWIDTH 600 0
DWIDTH 9 0
BBX 8 10 1 0
BITMAP
1B
0E
00
3D
67
71
3C
8E
E6
BC
ENDCHAR

STARTCHAR scommaaccent
ENCODING 186
SWIDTH 600 0
DWIDTH 9 0
BBX 8 11 1 -4
BITMAP
3D
67
71
3C
8E
E6
BC
00
30
30
60
ENDCHAR

STARTCHAR tcaron
ENCODING 187
SWIDTH 600 0
DWIDTH 9 0
BBX 7 10 2 0
BITMAP
02
32
34
FC
60
60
C0
C0
CC
78
ENDCHAR

STARTCHAR zacute
ENCODING 188
SWIDTH 600 0
DWIDTH 9 0
BBX 8 10 1 0
BITMAP
06
0C
00
7F
63
0E
3C
70
C6
FE
ENDCHAR

STARTCHAR hungarumlaut
ENCODING 189
SWIDTH 600 0
DWIDTH 9 0
BBX 7 2 1 8
BITMAP
66
CC
ENDCHAR

STARTCHAR zcaron
ENCODING 190
SWIDTH 600 0
DWIDTH 9 0
BBX 8 10 1 0
BITMAP
36
1C
00
7F
63
0E
3C
70
C6
FE
ENDCHAR

STARTCHAR zdotaccent
ENCODING 191
SWIDTH 600 0
DWIDTH 9 0
BBX 8 10 1 0
BITMAP
0C
0C
00
7F
63
0E
3C
70
C6
FE
ENDCHAR

STARTCHAR Racute
ENCODING 192
SWIDTH 600 0
DWIDTH 9 0
BBX 10 12 0 0
BITMAP
0300
0600
0000
3F80
18C0
18C0
3180
3F00
3600
6300
6300
F180
ENDCHAR

STARTCHAR Aacute
ENCODING 193
SWIDTH 600 0
DWIDTH 9 0
BBX 9 12 0 0
BITMAP
0600
0C00
0000
3C00
0E00
0E00
1B00
1300
3F00
3300
6300
F780
ENDCHAR

STARTCHAR Acircumflex
ENCODING 194
SWIDTH 600 0
DWIDTH 9 0
BBX 9 12 0 0
BITMAP
0E00
1B00
0000
3C00
0E00
0E00
1B00
1300
3F00
3300
6300
F780
ENDCHAR

STARTCHAR Abreve
ENCODING 195
SWIDTH 600 0
DWIDTH 9 0
BBX 9 12 0 0
BITMAP
3300
1E00
0000
3C00
0E00
0E00
1B00
1300
3F00
3300
6300
F780
ENDCHAR

STARTCHAR Adieresis
ENCODING 196
SWIDTH 600 0
DWIDTH 9 0
BBX 9 12 0 0
BITMAP
3300
3300
0000
3C00
0E00
0E00
1B00
1300
3F00
3300
6300
F780
ENDCHAR

STARTCHAR Lacute
ENCODING 197
SWIDTH 600 0
DWIDTH 9 0
BBX 8 12 0 0
BITMAP
03
06
00
1F
0C
0C
18
18
18
33
33
FF
ENDCHAR

STARTCHAR Cacute
ENCODING 198
SWIDTH 600 0
DWIDTH 9 0
BBX 9 12 1 0
BITMAP
0600
0C00
0000
1E80
3380
6180
6000
C000
C000
C300
EE00
7C00
ENDCHAR

STARTCHAR Ccedilla
ENCODING 199
SWIDTH 600 0
DWIDTH 9 0
BBX 9 12 1 -3
BITMAP
1E80
3380
6180
6000
C000
C000
C300
EE00
7C00
1000
0800
3000
ENDCHAR

STARTCHAR Ccaron
ENCODING 200
SWIDTH 600 0
DWIDTH 9 0
BBX 9 12 1 0
BITMAP
1B00
0E00
0000
1E80
3380
6180
6000
C000
C000
C300
EE00
7C00
ENDCHAR

STARTCHAR Eacute
ENCODING 201
SWIDTH 600 0
DWIDTH 9 0
BBX 9 12 0 0
BITMAP
0300
0600
0000
3F80
1980
1980
3200
3E00
3400
6300
6300
FF00
ENDCHAR

STARTCHAR Eogonek
ENCODING 202
SWIDTH 600 0
DWIDTH 9 0
BBX 9 11 0 -2
BITMAP
3F80
1980
1980
3200
3E00
3400
6300
6300
FF00
0600
0700
ENDCHAR

STARTCHAR Edieresis
ENCODING 203
SWIDTH 600 0
DWIDTH 9 0
BBX 9 12 0 0
BITMAP
1980
1980
0000
3F80
1980
1980
3200
3E00
3400
6300
6300
FF00
ENDCHAR

STARTCHAR Ecaron
ENCODING 204
SWIDTH 600 0
DWIDTH 9 0
BBX 9 12 0 0
BITMAP
0D80
0700
0000
3F80
1980
1980
3200
3E00
3400
6300
6300
FF00
ENDCHAR

STARTCHAR Iacute
ENCODING 205
SWIDTH 600 0
DWIDTH 9 0
BBX 8 12 1 0
BITMAP
06
0C
00
3F
0C
0C
18
18
18
30
30
FC
ENDCHAR

STARTCHAR Icircumflex
ENCODING 206
SWIDTH 600 0
DWIDTH 9 0
BBX 8 12 1 0
BITMAP
0E
1B
00
3F
0C
0C
18
18
18
30
30
FC
ENDCHAR

STARTCHAR Dcaron
ENCODING 207
SWIDTH 600 0
DWIDTH 9 0
BBX 9 12 0 0
BITMAP
1B00
0E00
0000
3E00
1B00
1980
3180
3180
3300
6300
6600
FC00
ENDCHAR

STARTCHAR Dcroat
ENCODING 208
SWIDTH 600 0
DWIDTH 9 0
BBX 9 9 0 0
BITMAP
3E00
1B00
1980
3180
7D80
3300
6300
6600
FC00
ENDCHAR

STARTCHAR Nacute
ENCODING 209
SWIDTH 600 0
DWIDTH 9 0
BBX 11 12 0 0
BITMAP
0180
0300
0000
38E0
1840
1CC0
3C80
2E80
2780
6700
4300
E300
ENDCHAR

STARTCHAR Ncaron
ENCODING 210
SWIDTH 600 0
DWIDTH 9 0
BBX 11 12 0 0
BITMAP
0D80
0700
0000
38E0
1840
1CC0
3C80
2E80
2780
6700
4300
E300
ENDCHAR

STARTCHAR Oacute
ENCODING 211
SWIDTH 600 0
DWIDTH 9 0
BBX 9 12 1 0
BITMAP
0300
0600
0000
1F00
3380
6180
6180
C180
C300
C300
E600
7C00
ENDCHAR

STARTCHAR Ocircumflex
ENCODING 212
SWIDTH 600 0
DWIDTH 9 0
BBX 9 12 1 0
BITMAP
0700
0D80
0000
1F00
3380
6180
6180
C180
C300
C300
E600
7C00
ENDCHAR

STARTCHAR Ohungarumlaut
ENCODING 213
SWIDTH 600 0
DWIDTH 9 0
BBX 10 12 1 0
BITMAP
0CC0
1980
0000
1F00
3380
6180
6180
C180
C300
C300
E600
7C00
ENDCHAR

STARTCHAR Odieresis
ENCODING 214
SWIDTH 600 0
DWIDTH 9 0
BBX 9 12 1 0
BITMAP
1980
1980
0000
1F00
3380
6180
6180
C180
C300
C300
E600
7C00
ENDCHAR

STARTCHAR multiply
ENCODING 215
SWIDTH 600 0
DWIDTH 9 0
BBX 5 4 2 2
BITMAP
D8
70
70
D8
ENDCHAR

STARTCHAR Rcaron
ENCODING 216
SWIDTH 600 0
DWIDTH 9 0
BBX 10 12 0 0
BITMAP
0D80
0700
0000
3F80
18C0
18C0
3180
3F00
3600
6300
6300
F180
ENDCHAR

STARTCHAR Uring
ENCODING 217
SWIDTH 600 0
DWIDTH 9 0
BBX 10 12 1 0
BITMAP
0600
0900
0600
7BC0
3180
3180
6300
6300
6300
C600
C600
7C00
ENDCHAR

STARTCHAR Uacute
ENCODING 218
SWIDTH 600 0
DWIDTH 9 0
BBX 10 12 1 0
BITMAP
0300
0600
0000
7BC0
3180
3180
6300
6300
6300
C600
C600
7C00
ENDCHAR

STARTCHAR Uhungarumlaut
ENCODING 219
SWIDTH 600 0
DWIDTH 9 0
BBX 10 12 1 0
BITMAP
0CC0
1980
0000
7BC0
3180
3180
6300
6300
6300
C600
C600
7C00
ENDCHAR

STARTCHAR Udieresis
ENCODING 220
SWIDTH 600 0
DWIDTH 9 0
BBX 10 12 1 0
BITMAP
1980
1980
0000
7BC0
3180
3180
6300
6300
6300
C600
C600
7C00
ENDCHAR

STARTCHAR Yacute
ENCODING 221
SWIDTH 600 0
DWIDTH 9 0
BBX 10 12 1 0
BITMAP
0600
0C00
0000
F3C0
6180
3300
1E00
0C00
0C00
1800
1800
7E00
ENDCHAR

STARTCHAR Tcommaaccent
ENCODING 222
SWIDTH 600 0
DWIDTH 9 0
BBX 10 13 1 -4
BITMAP
FFC0
CCC0
CCC0
1800
1800
1800
3000
3000
FC00
0000
3000
3000
6000
ENDCHAR

STARTCHAR germandbls
ENCODING 223
SWIDTH 600 0
DWIDTH 9 0
BBX 8 10 0 0
BITMAP
0E
1B
1B
33
36
33
33
63
66
EC
ENDCHAR

STARTCHAR racute
ENCODING 224
SWIDTH 600 0
DWIDTH 9 0
BBX 9 10 0 0
BITMAP
0600
0C00
0000
3B80
1C00
1800
1800
3000
3000
FC00
ENDCHAR

STARTCHAR aacute
ENCODING 225
SWIDTH 600 0
DWIDTH 9 0
BBX 8 10 1 0
BITMAP
06
0C
00
3E
03
03
7F
C6
CE
7B
ENDCHAR

STARTCHAR acircumflex
ENCODING 226
SWIDTH 600 0
DWIDTH 9 0
BBX 8 10 1 0
BITMAP
0E
1B
00
3E
03
03
7F
C6
CE
7B
ENDCHAR

STARTCHAR abreve
ENCODING 227
SWIDTH 600 0
DWIDTH 9 0
BBX 8 10 1 0
BITMAP
33
1E
00
3E
03
03
7F
C6
CE
7B
ENDCHAR

STARTCHAR adieresis
ENCODING 228
SWIDTH 600 0
DWIDTH 9 0
BBX 8 10 1 0
BITMAP
33
33
00
3E
03
03
7F
C6
CE
7B
ENDCHAR

STARTCHAR lacute
ENCODING 229
SWIDTH 600 0
DWIDTH 9 0
BBX 7 12 2 0
BITMAP
06
0C
3C
0C
0C
18
18
18
30
30
30
FC
ENDCHAR

STARTCHAR cacute
ENCODING 230
SWIDTH 600 0
DWIDTH 9 0
BBX 8 10 1 0
BITMAP
06
0C
00
1D
67
63
C0
C0
C6
7C
ENDCHAR

STARTCHAR ccedilla
ENCODING 231
SWIDTH 600 0
DWIDTH 9 0
BBX 8 10 1 -3
BITMAP
1D
67
63
C0
C0
C6
7C
10
08
30
ENDCHAR

STARTCHAR ccaron
ENCODING 232
SWIDTH 600 0
DWIDTH 9 0
BBX 8 10 1 0
BITMAP
36
1C
00
1D
67
63
C0
C0
C6
7C
ENDCHAR

STARTCHAR eacute
ENCODING 233
SWIDTH 600 0
DWIDTH 9 0
BBX 8 10 1 0
BITMAP
06
0C
00
1E
63
63
FF
C0
C6
7C
ENDCHAR

STARTCHAR eogonek
ENCODING 234
SWIDTH 600 0
DWIDTH 9 0
BBX 8 9 1 -2
BITMAP
1E
63
63
FF
C0
C6
7C
30
38
ENDCHAR

STARTCHAR edieresis
ENCODING 235
SWIDTH 600 0
DWIDTH 9 0
BBX 8 10 1 0
BITMAP
33
33
00
1E
63
63
FF
C0
C6
7C
ENDCHAR

STARTCHAR ecaron
ENCODING 236
SWIDTH 600 0
DWIDTH 9 0
BBX 8 10 1 0
BITMAP
36
1C
00
1E
63
63
FF
C0
C6
7C
ENDCHAR

STARTCHAR iacute
ENCODING 237
SWIDTH 600 0
DWIDTH 9 0
BBX 6 10 2 0
BITMAP
0C
18
00
78
18
18
30
30
30
FC
ENDCHAR

STARTCHAR icircumflex
ENCODING 238
SWIDTH 600 0
DWIDTH 9 0
BBX 6 10 2 0
BITMAP
38
6C
00
78
18
18
30
30
30
FC
ENDCHAR

STARTCHAR dcaron
ENCODING 239
SWIDTH 600 0
DWIDTH 9 0
BBX 11 10 1 0
BITMAP
03A0
01A0
01C0
3B00
6700
6300
C600
C600
CE00
7700
ENDCHAR

STARTCHAR dcroat
ENCODING 240
SWIDTH 600 0
DWIDTH 9 0
BBX 10 10 1 0
BITMAP
0380
07C0
0180
3B00
6700
6300
C600
C600
CE00
7700
ENDCHAR

STARTCHAR nacute
ENCODING 241
SWIDTH 600 0
DWIDTH 9 0
BBX 9 10 0 0
BITMAP
0300
0600
0000
7700
3D80
3180
3180
6300
6300
F780
ENDCHAR

STARTCHAR ncaron
ENCODING 242
SWIDTH 600 0
DWIDTH 9 0
BBX 9 10 0 0
BITMAP
0D80
0700
0000
7700
3D80
3180
3180
6300
6300
F780
ENDCHAR

STARTCHAR oacute
ENCODING 243
SWIDTH 600 0
DWIDTH 9 0
BBX 8 10 1 0
BITMAP
06
0C
00
1E
63
63
C3
C6
C6
78
ENDCHAR

STARTCHAR ocircumflex
ENCODING 244
SWIDTH 600 0
DWIDTH 9 0
BBX 8 10 1 0
BITMAP
0E
1B
00
1E
63
63
C3
C6
C6
78
ENDCHAR

STARTCHAR ohungarumlaut
ENCODING 245
SWIDTH 600 0
DWIDTH 9 0
BBX 9 10 1 0
BITMAP
1980
3300
0000
1E00
6300
6300
C300
C600
C600
7800
ENDCHAR

STARTCHAR odieresis
ENCODING 246
SWIDTH 600 0
DWIDTH 9 0
BBX 8 10 1 0
BITMAP
33
33
00
1E
63
63
C3
C6
C6
78
ENDCHAR

STARTCHAR divide
ENCODING 247
SWIDTH 600 0
DWIDTH 9 0
BBX 7 8 2 0
BITMAP
18
18
00
FE
FE
00
30
30
ENDCHAR

STARTCHAR rcaron
ENCODING 248
SWIDTH 600 0
DWIDTH 9 0
BBX 9 10 0 0
BITMAP
1B00
0E00
0000
3B80
1C00
1800
1800
3000
3000
FC00
ENDCHAR

STARTCHAR uring
ENCODING 249
SWIDTH 600 0
DWIDTH 9 0
BBX 8 11 1 0
BITMAP
0C
12
0C
00
E7
63
63
C6
C6
CE
77
ENDCHAR

STARTCHAR uacute
ENCODING 250
SWIDTH 600 0
DWIDTH 9 0
BBX 8 10 1 0
BITMAP
0C
18
00
E7
63
63
C6
C6
CE
77
ENDCHAR

STARTCHAR uhungarumlaut
ENCODING 251
SWIDTH 600 0
DWIDTH 9 0
BBX 8 10 1 0
BITMAP
33
66
00
E7
63
63
C6
C6
CE
77
ENDCHAR

STARTCHAR udieresis
ENCODING 252
SWIDTH 600 0
DWIDTH 9 0
BBX 8 10 1 0
BITMAP
66
66
00
E7
63
63
C6
C6
CE
77
ENDCHAR

STARTCHAR yacute
ENCODING 253
SWIDTH 600 0
DWIDTH 9 0
BBX 10 13 0 -3
BITMAP
0600
0C00
0000
7BC0
3180
3180
3300
3600
1C00
1800
3000
3000
F800
ENDCHAR

STARTCHAR tcommaaccent
ENCODING 254
SWIDTH 600 0
DWIDTH 9 0
BBX 6 13 2 -4
BITMAP
30
30
FC
60
60
C0
C0
CC
78
00
60
60
C0
ENDCHAR

STARTCHAR dotaccent
ENCODING 255
SWIDTH 600 0
DWIDTH 9 0
BBX 2 2 5 8
BITMAP
C0
C0
ENDCHAR
ENDFONT
